<svg width="162" height="149" viewBox="0 0 162 149" fill="none" xmlns="http://www.w3.org/2000/svg">
<path d="M112.415 116.096C111.951 116.096 111.439 116.032 110.879 115.904C110.335 115.76 109.799 115.472 109.271 115.04C108.759 114.592 108.319 113.904 107.951 112.976L107.375 111.56H100.847L98.9026 116H97.7266L104.663 100.16H105.575L110.927 112.976C111.247 113.76 111.599 114.352 111.983 114.752C112.383 115.136 112.879 115.36 113.471 115.424V115.976C113.343 116.008 113.175 116.032 112.967 116.048C112.775 116.08 112.591 116.096 112.415 116.096ZM101.303 110.528H106.895L104.159 103.976L101.303 110.528ZM114.709 116V107.744C114.709 107.024 114.613 106.448 114.421 106.016C114.229 105.568 113.773 105.344 113.053 105.344H112.813V104.72H114.997C115.557 104.72 115.989 104.8 116.293 104.96C116.613 105.104 116.853 105.344 117.013 105.68C117.301 105.424 117.701 105.16 118.213 104.888C118.725 104.616 119.333 104.48 120.037 104.48C120.341 104.48 120.629 104.52 120.901 104.6C121.189 104.664 121.429 104.768 121.621 104.912C121.861 105.072 122.045 105.272 122.173 105.512C122.301 105.736 122.397 105.896 122.461 105.992L121.333 106.832C121.173 106.608 120.941 106.416 120.637 106.256C120.333 106.08 119.981 105.992 119.581 105.992C119.085 105.992 118.645 106.08 118.261 106.256C117.893 106.432 117.597 106.656 117.373 106.928C117.389 107.12 117.405 107.304 117.421 107.48C117.437 107.64 117.445 107.776 117.445 107.888V116H114.709Z" fill="#041851"/>
<path d="M164.619 164.618C194.924 134.313 194.924 85.1782 164.619 54.8727C134.313 24.5673 85.1783 24.5673 54.8729 54.8727C24.5674 85.1782 24.5674 134.313 54.8729 164.618C85.1783 194.924 134.313 194.924 164.619 164.618Z" stroke="#114BF4" stroke-opacity="0.17" stroke-width="2.3075" stroke-miterlimit="10"/>
<path d="M171.326 124.101C179.252 90.0986 158.112 56.1098 124.11 48.1845C90.108 40.2592 56.1191 61.3985 48.1938 95.4006C40.2685 129.403 61.4079 163.392 95.41 171.317C129.412 179.242 163.401 158.103 171.326 124.101Z" stroke="#114BF4" stroke-opacity="0.17" stroke-width="2.3075" stroke-miterlimit="10"/>
<path d="M109.751 158.581C136.725 158.581 158.591 136.715 158.591 109.741C158.591 82.7674 136.725 60.9009 109.751 60.9009C82.7776 60.9009 60.9111 82.7674 60.9111 109.741C60.9111 136.715 82.7776 158.581 109.751 158.581Z" stroke="#114BF4" stroke-opacity="0.17" stroke-width="2.3075" stroke-miterlimit="10"/>
<path d="M109.751 144.205C128.785 144.205 144.216 128.775 144.216 109.741C144.216 90.7065 128.785 75.2764 109.751 75.2764C90.7173 75.2764 75.2871 90.7065 75.2871 109.741C75.2871 128.775 90.7173 144.205 109.751 144.205Z" stroke="#114BF4" stroke-opacity="0.17" stroke-width="2.3075" stroke-miterlimit="10"/>
</svg>
