<svg width="220" height="220" viewBox="0 0 220 220" fill="none" xmlns="http://www.w3.org/2000/svg">
<path d="M164.619 164.618C194.924 134.313 194.924 85.1782 164.619 54.8727C134.313 24.5673 85.1783 24.5673 54.8729 54.8727C24.5674 85.1782 24.5674 134.313 54.8729 164.618C85.1783 194.924 134.313 194.924 164.619 164.618Z" stroke="#114BF4" stroke-opacity="0.17" stroke-width="2.3075" stroke-miterlimit="10"/>
<path d="M171.326 124.101C179.252 90.0986 158.112 56.1098 124.11 48.1845C90.108 40.2592 56.1191 61.3985 48.1938 95.4006C40.2685 129.403 61.4079 163.392 95.41 171.317C129.412 179.242 163.401 158.103 171.326 124.101Z" stroke="#114BF4" stroke-opacity="0.17" stroke-width="2.3075" stroke-miterlimit="10"/>
<path d="M109.751 158.581C136.725 158.581 158.591 136.715 158.591 109.741C158.591 82.7674 136.725 60.9009 109.751 60.9009C82.7776 60.9009 60.9111 82.7674 60.9111 109.741C60.9111 136.715 82.7776 158.581 109.751 158.581Z" stroke="#114BF4" stroke-opacity="0.17" stroke-width="2.3075" stroke-miterlimit="10"/>
<path d="M109.751 144.205C128.785 144.205 144.216 128.775 144.216 109.741C144.216 90.7065 128.785 75.2764 109.751 75.2764C90.7173 75.2764 75.2871 90.7065 75.2871 109.741C75.2871 128.775 90.7173 144.205 109.751 144.205Z" stroke="#114BF4" stroke-opacity="0.17" stroke-width="2.3075" stroke-miterlimit="10"/>
</svg>
