<svg width="90" height="71" viewBox="0 0 90 71" fill="none" xmlns="http://www.w3.org/2000/svg">
<path d="M3.3518 1.30649e-10H35.6797C38.1807 0.000815852 40.579 0.883541 42.347 2.45404L77.2359 33.429C79.0048 34.9987 79.9991 37.1279 80 39.3483C80 39.3483 80 63.7148 80 69.7114C80.0001 69.8833 79.9614 70.0535 79.8862 70.2119C79.811 70.3704 79.7009 70.5138 79.5623 70.6339C79.4237 70.7539 79.2594 70.8481 79.0792 70.9109C78.8989 70.9738 78.7063 71.0039 78.5127 70.9996H77.3665C78.8973 70.7226 78.208 69.4666 77.5914 68.8998L65.258 57.905L14.8726 13.2235L2.76415 1.98384C2.61017 1.83582 2.41581 1.72554 2.19983 1.66363C1.98385 1.60173 1.75355 1.59029 1.53114 1.63043C1.30874 1.67057 1.10174 1.76093 0.930122 1.89278C0.758507 2.02464 0.628067 2.19354 0.551399 2.38319L3.05176e-05 3.42663V2.98864C-0.00187683 2.59678 0.0834045 2.20844 0.250992 1.84591C0.418579 1.48339 0.665161 1.15382 0.976593 0.87613C1.28802 0.598439 1.65816 0.378093 2.06577 0.227742C2.47338 0.0773915 2.91042 -3.67175e-06 3.3518 1.30649e-10Z" fill="#FFD109"/>
<path d="M24.2917 11.3236L25.4502 12.3383L26.9261 10.6533L27.8363 11.4506L27.4887 14.1239L28.8427 15.3099L29.2036 12.3026C30.0906 12.6408 31.0173 12.5086 31.7618 11.6586L31.775 11.6435C32.2098 11.1471 32.4143 10.595 32.3779 10.0446C32.3349 9.3955 31.9806 8.75281 31.3111 8.1664L28.9039 6.05794L24.2917 11.3236ZM27.8222 9.63025L29.1465 8.11825L30.2975 9.12635C30.8616 9.62052 30.9836 10.1794 30.5488 10.6758L30.5356 10.6909C30.1468 11.1347 29.5598 11.1523 28.9957 10.6581L27.8222 9.63025ZM31.3656 17.6792C32.0953 18.3183 32.8873 18.5069 33.6719 18.3699L33.5248 17.2175C32.9519 17.2341 32.5681 17.1107 32.1845 16.7747C31.673 16.3266 31.5491 15.7395 31.8909 15.1217L34.6967 17.5793C34.7965 17.4806 34.8963 17.3819 34.9753 17.2916C35.9769 16.1482 36.2759 14.5623 34.9294 13.3829C33.7559 12.355 32.1057 12.5847 31.0976 13.7356L31.0845 13.7506C30.0039 14.9843 30.1545 16.6184 31.3656 17.6792ZM32.5018 14.3939C33.0467 13.9539 33.6516 13.8855 34.1255 14.3006C34.607 14.7223 34.6048 15.3319 34.2244 15.9027L32.5018 14.3939ZM35.9714 21.7135C36.7763 22.4185 37.4978 22.5054 38.2645 22.4193L38.188 21.1558C37.6791 21.1753 37.2709 21.1102 36.8872 20.7742C36.2629 20.2273 36.299 19.3816 36.8393 18.7648L36.8525 18.7497C37.373 18.1555 38.2207 18.0073 38.7924 18.508C39.1986 18.8638 39.3028 19.2609 39.3214 19.7557L40.6799 19.6162C40.6727 18.8655 40.4228 18.1947 39.6631 17.5292C38.4294 16.4486 36.7191 16.6255 35.711 17.7764L35.6978 17.7915C34.6897 18.9424 34.7603 20.6527 35.9714 21.7135ZM40.2339 25.447C41.4901 26.5474 43.2465 26.4241 44.2612 25.2657L44.2744 25.2506C45.2891 24.0922 45.1743 22.3565 43.9256 21.2627C42.6693 20.1624 40.9129 20.2856 39.8982 21.4441L39.8851 21.4591C38.8704 22.6176 38.9852 24.3533 40.2339 25.447ZM41.1121 24.4748C40.4802 23.9213 40.5061 23.0267 41.0266 22.4324L41.0398 22.4174C41.5603 21.8231 42.3929 21.6617 43.0474 22.235C43.6792 22.7884 43.6534 23.6831 43.1329 24.2773L43.1197 24.2924C42.5992 24.8866 41.7665 25.048 41.1121 24.4748ZM43.3299 27.9993L44.4733 29.0008L46.4434 26.7516C46.9178 26.21 47.4249 26.1623 47.8537 26.5379C48.2824 26.9135 48.2794 27.4026 47.805 27.9442L45.8349 30.1934L46.9783 31.1949L48.9484 28.9458C49.4228 28.4041 49.9298 28.3564 50.3586 28.732C50.7874 29.1076 50.7843 29.5967 50.3099 30.1383L48.3398 32.3875L49.4832 33.3891L51.7828 30.7637C52.6327 29.7934 52.5692 28.8338 51.7192 28.0892C51.1701 27.6082 50.5512 27.4649 49.8352 27.569C49.9804 26.9783 49.786 26.3959 49.2594 25.9347C48.6802 25.4273 48.064 25.4326 47.5042 25.5405L48.005 24.9688L46.8616 23.9673L43.3299 27.9993ZM50.4776 34.2601L51.621 35.2616L53.5911 33.0124C54.0655 32.4708 54.5726 32.4231 55.0014 32.7986C55.4302 33.1742 55.4271 33.6634 54.9527 34.205L52.9826 36.4542L54.126 37.4557L56.0961 35.2065C56.5705 34.6649 57.0776 34.6172 57.5063 34.9927C57.9351 35.3683 57.932 35.8575 57.4576 36.3991L55.4876 38.6483L56.631 39.6498L58.9305 37.0245C59.7805 36.0541 59.717 35.0945 58.867 34.35C58.3178 33.869 57.6989 33.7257 56.983 33.8297C57.1281 33.239 56.9337 32.6566 56.4071 32.1954C55.8279 31.6881 55.2117 31.6934 54.6519 31.8013L55.1527 31.2296L54.0093 30.2281L50.4776 34.2601ZM59.457 42.2847C60.1867 42.9238 60.9787 43.1124 61.7633 42.9754L61.6162 41.823C61.0433 41.8396 60.6595 41.7162 60.2759 41.3801C59.7644 40.9321 59.6405 40.345 59.9823 39.7271L62.7881 42.1848C62.8879 42.0861 62.9877 41.9873 63.0667 41.8971C64.0683 40.7537 64.3673 39.1678 63.0208 37.9884C61.8473 36.9605 60.1971 37.1901 59.189 38.341L59.1759 38.3561C58.0953 39.5898 58.2459 41.2239 59.457 42.2847ZM60.5932 38.9993C61.1381 38.5593 61.743 38.491 62.2169 38.9061C62.6984 39.3278 62.6962 39.9374 62.3158 40.5082L60.5932 38.9993ZM62.2387 44.5617L63.3821 45.5632L65.3522 43.314C65.8266 42.7724 66.3487 42.7379 66.785 43.12C67.2213 43.5022 67.2333 44.0045 66.7589 44.5461L64.7888 46.7953L65.9322 47.7968L68.2186 45.1866C69.029 44.2613 69.0258 43.2482 68.1607 42.4904C67.5815 41.9831 66.9728 41.995 66.413 42.1029L66.9138 41.5312L65.7704 40.5297L62.2387 44.5617ZM68.5145 50.1917C69.1088 50.7122 69.7362 50.7699 70.344 50.6376L69.8367 51.2168L70.9801 52.2183L75.79 46.727L74.6466 45.7255L72.9071 47.7114C72.9196 47.1507 72.7873 46.5429 72.178 46.0092C71.2226 45.1724 69.6968 45.1387 68.5174 46.4852L68.5042 46.5003C67.3248 47.8468 67.5743 49.3681 68.5145 50.1917ZM69.6579 49.4783C69.1238 49.0104 69.0612 48.1713 69.6476 47.5018L69.6608 47.4867C70.2538 46.8097 71.0873 46.7688 71.6214 47.2366C72.1555 47.7044 72.2106 48.537 71.6241 49.2065L71.611 49.2215C71.0245 49.891 70.192 49.9461 69.6579 49.4783Z" fill="#121212"/>
</svg>
