<svg width="83" height="41" viewBox="0 0 83 41" fill="none" xmlns="http://www.w3.org/2000/svg">
<path d="M30.6528 21.6461C29.9664 19.1641 28.8815 17.0503 27.315 15.154C28.5881 13.3803 29.8446 11.6346 31.1011 9.88331C33.3374 6.7767 35.5792 3.67566 37.7933 0.557885C38.0811 0.150734 38.38 -0.00543362 38.8837 0.000143789C41.3635 0.0280308 43.8434 0.0112986 46.4948 0.0112986C43.8766 3.59757 41.3359 7.0723 38.7343 10.6363C40.6495 10.7645 42.3986 11.1159 44.0316 11.8968C49.7883 14.6408 52.8603 19.2422 53.0541 25.6451C53.2146 30.8655 57.3495 34.7809 62.381 34.2399C66.3388 33.816 69.5492 30.5365 69.8648 26.5821C70.1913 22.4994 67.6728 18.7737 63.8258 17.6582C60.3551 16.6543 56.569 18.0263 54.5209 21.027C54.4102 21.1887 54.2995 21.3505 54.1169 21.6126C53.4416 19.1809 52.3622 17.0614 50.7957 15.154C51.5042 14.1445 52.2127 13.1517 52.9102 12.1533C55.6225 8.29933 58.3403 4.44534 61.036 0.574617C61.3238 0.161889 61.6282 0.0112986 62.1264 0.0112986C68.9238 0.0224534 75.7211 0.0112986 82.524 0.0057212C82.6513 0.0057212 82.7731 0.0224534 83 0.0336082C82.8339 0.284592 82.7232 0.463069 82.5959 0.635968C81.2453 2.48767 79.8781 4.32264 78.5496 6.19107C78.2452 6.61495 77.9352 6.78785 77.4094 6.78785C73.4682 6.76554 69.5271 6.78785 65.586 6.77112C65.1099 6.77112 64.8221 6.92171 64.5509 7.30655C63.7925 8.39972 62.9899 9.46501 62.1652 10.5972C63.001 10.7199 63.7759 10.8092 64.5453 10.9598C71.3371 12.2983 76.4573 18.5004 76.5293 25.4666C76.6067 33.1188 71.5253 39.332 64.025 40.7599C56.2867 42.2323 48.2827 36.7664 46.7937 28.9469C46.5501 27.6641 46.539 26.3367 46.4062 25.026C46.0353 21.356 43.5611 18.4446 40.0628 17.5522C36.6752 16.6933 33.0772 18.1044 31.0513 21.0828C30.9351 21.2333 30.8354 21.3784 30.6528 21.6461Z" fill="#000086"/>
<path d="M9.41938 17.3626C12.0154 13.8042 14.5229 10.363 17.119 6.81016C12.4084 6.81016 7.80861 6.81016 3.02612 6.81016C3.8066 5.73372 4.47637 4.80787 5.15167 3.8876C6.00411 2.72192 6.85101 1.54509 7.73112 0.401717C7.88057 0.206508 8.19055 0.0336082 8.42303 0.0280308C15.5968 0.0057212 22.7705 0.0112986 29.9442 0.0112986C30.0273 0.0112986 30.1158 0.0280308 30.3483 0.0447631C27.3537 4.16647 24.409 8.20451 21.5583 12.1143C22.931 13.2744 24.3536 14.2783 25.5437 15.5109C28.3667 18.4335 29.4793 22.0644 29.6232 26.0913C29.7948 30.9101 33.675 34.4797 38.4298 34.2399C41.0979 34.106 43.2677 32.9347 44.8563 30.7372C45.0113 30.5197 45.1608 30.3022 45.3157 30.0903C45.3268 30.0735 45.3545 30.068 45.4209 30.0401C46.0741 32.3882 47.1535 34.5132 48.7366 36.4262C47.242 37.9656 45.5261 39.1034 43.5721 39.8842C34.5275 43.4928 24.5861 37.7146 23.1414 27.9932C22.9421 26.649 22.9698 25.2658 22.7041 23.944C21.8129 19.5713 17.8607 17.2065 14.617 17.357C12.9343 17.424 11.2571 17.3626 9.41938 17.3626Z" fill="#000086"/>
<path d="M0.0093888 25.7734C2.21243 25.7734 4.3712 25.7734 6.5355 25.7734C6.86761 29.8672 8.78836 32.7953 12.7461 33.8885C16.8533 35.0263 19.8257 33.1188 22.0122 29.7445C22.455 30.8711 22.8314 32.0312 23.3628 33.1132C23.8997 34.2064 24.5972 35.2159 25.2392 36.2923C22.8203 39.254 16.5987 42.4163 10.15 40.1352C2.94309 37.5863 -0.195417 30.8599 0.0093888 25.7734Z" fill="#000086"/>
</svg>
