<?xml version="1.0" encoding="utf-8"?>
<!-- Generator: Adobe Illustrator 26.0.1, SVG Export Plug-In . SVG Version: 6.00 Build 0)  -->
<svg version="1.1" id="Layer_1" xmlns="http://www.w3.org/2000/svg" xmlns:xlink="http://www.w3.org/1999/xlink" x="0px" y="0px"
	 viewBox="0 0 1456 177" style="enable-background:new 0 0 1456 177;" xml:space="preserve">
<style type="text/css">
	.st0{opacity:0.3;fill:#FFFFFF;enable-background:new    ;}
	.st1{fill:#FFFFFF;}
	.st2{opacity:0.6;fill:#FFFFFF;enable-background:new    ;}
	.st3{opacity:0.15;fill:#FFFFFF;enable-background:new    ;}
	.st4{opacity:0.2;fill:#FFFFFF;enable-background:new    ;}
</style>
<path class="st0" d="M17.9,121.2V177h1434.7V77.3c-36.6,9.9-121.7,32.9-169.1,45.4c-59.2,15.6-133.5,24.6-243.4,35.7
	c-109.8,11.2-298.3-37.2-310.1-39.5c-11.8-2.2-112-38-303.7-46.2C273.1,66.2,92.2,102.3,17.9,121.2z"/>
<path class="st1" d="M-2.4,84.9V145h1460.7V37.7c-36.6,10.7-112.4,35.4-159.8,48.9c-59.2,16.8-133.5,26.4-243.4,38.5
	C945.3,137,756.8,84.9,745,82.5c-11.8-2.4-112-40.9-303.7-49.7C287.9,25.8,72,64.6-2.4,84.9z"/>
<path class="st2" d="M21.6,65.2V121h1431l0.5-99.7c-36.6,9.9-112.4,32.9-159.8,45.4c-59.2,15.6-133.5,24.6-243.3,35.7
	c-109.8,11.2-298.3-37.2-310.1-39.5c-11.8-2.2-112-38-303.7-46.2C282.9,10.2,95.9,46.3,21.6,65.2z"/>
<path class="st3" d="M1456.9,49.2V105H16.4V5.3c36.8,9.9,122.4,32.9,170.1,45.4c59.6,15.6,134.4,24.6,244.9,35.7
	s300.1-37.2,312.1-39.5C755.3,44.7,856.1,9,1049,0.8C1203.3-5.8,1382.1,30.3,1456.9,49.2z"/>
<path class="st4" d="M1458.4,55.2l-5.8,55.8H17.9V11.3C54.7,21.2,140.3,44.2,188,56.7c59.6,15.6,134.4,24.6,244.9,35.7
	S733,55.2,744.9,52.9s112.7-38,305.5-46.2C1204.8,0.2,1383.6,36.3,1458.4,55.2z"/>
</svg>
