<svg width="32" height="32" viewBox="0 0 32 32" fill="none" xmlns="http://www.w3.org/2000/svg">
<path d="M16.3333 3C8.96933 3 3 8.96933 3 16.3333C3 23.6973 8.96933 29.6667 16.3333 29.6667C23.6973 29.6667 29.6667 23.6973 29.6667 16.3333C29.6667 8.96933 23.6973 3 16.3333 3Z" stroke="#000086" stroke-width="1.5" stroke-linecap="round" stroke-linejoin="round"/>
<path d="M16.0208 20.056C15.7502 20.056 15.4515 20.0187 15.1248 19.944C14.8075 19.86 14.4948 19.692 14.1868 19.44C13.8882 19.1787 13.6315 18.7773 13.4168 18.236L13.0808 17.41H9.27284L8.13884 20H7.45284L11.4988 10.76H12.0308L15.1528 18.236C15.3395 18.6933 15.5448 19.0387 15.7688 19.272C16.0022 19.496 16.2915 19.6267 16.6368 19.664V19.986C16.5622 20.0047 16.4642 20.0187 16.3428 20.028C16.2308 20.0467 16.1235 20.056 16.0208 20.056ZM9.53884 16.808H12.8008L11.2048 12.986L9.53884 16.808ZM23.9813 20.14C23.6639 20.14 23.3606 20.0747 23.0713 19.944C22.7913 19.8133 22.5113 19.6033 22.2313 19.314C21.9606 19.0153 21.6713 18.614 21.3633 18.11L19.9633 15.758H19.2353V20H17.6393V12.524C17.6393 12.104 17.5786 11.768 17.4573 11.516C17.3453 11.2547 17.0793 11.124 16.6593 11.124H16.4493V10.76H20.2293C20.4719 10.76 20.7519 10.7787 21.0693 10.816C21.3959 10.844 21.7226 10.9093 22.0493 11.012C22.3759 11.1053 22.6793 11.2453 22.9593 11.432C23.2393 11.6187 23.4633 11.8613 23.6313 12.16C23.8086 12.4587 23.8973 12.832 23.8973 13.28C23.8973 13.7933 23.7853 14.2087 23.5613 14.526C23.3373 14.8433 23.0526 15.0907 22.7073 15.268C22.3619 15.436 22.0026 15.5667 21.6293 15.66L23.0993 18.11C23.4539 18.7073 23.7759 19.1087 24.0653 19.314C24.3639 19.5193 24.6439 19.6407 24.9053 19.678V20C24.8306 20.0373 24.7046 20.07 24.5273 20.098C24.3499 20.126 24.1679 20.14 23.9813 20.14ZM19.2353 15.226H20.1453C20.3599 15.226 20.5839 15.1933 20.8173 15.128C21.0506 15.0533 21.2699 14.9413 21.4753 14.792C21.6806 14.6427 21.8439 14.442 21.9653 14.19C22.0959 13.938 22.1613 13.63 22.1613 13.266C22.1613 12.902 22.0959 12.594 21.9653 12.342C21.8439 12.09 21.6806 11.8893 21.4753 11.74C21.2793 11.5813 21.0646 11.4693 20.8313 11.404C20.5979 11.3293 20.3739 11.292 20.1593 11.292C20.0566 11.292 19.9213 11.3013 19.7533 11.32C19.5853 11.3387 19.4126 11.3667 19.2353 11.404V15.226Z" fill="#000086"/>
</svg>
