<svg width="24" height="24" viewBox="0 0 24 24" fill="none" xmlns="http://www.w3.org/2000/svg">
<path d="M21 1.71429H19.7143V2.57143H21C21.341 2.57143 21.668 2.70689 21.9091 2.94801C22.1503 3.18912 22.2857 3.51615 22.2857 3.85714V18.4286C22.2857 18.7696 22.1503 19.0966 21.9091 19.3377C21.668 19.5788 21.341 19.7143 21 19.7143H2.14286C1.80186 19.7143 1.47484 19.5788 1.23372 19.3377C0.992602 19.0966 0.857143 18.7696 0.857143 18.4286V3.85714C0.857143 3.51615 0.992602 3.18912 1.23372 2.94801C1.47484 2.70689 1.80186 2.57143 2.14286 2.57143H3.42857V1.71429H2.14286C1.57454 1.71429 1.02949 1.94005 0.627628 2.34191C0.225765 2.74378 0 3.28882 0 3.85714V18.4286C0 18.9969 0.225765 19.5419 0.627628 19.9438C1.02949 20.3457 1.57454 20.5714 2.14286 20.5714H9.06857C9.10728 21.4838 8.85352 22.3848 8.34429 23.1429H7.28571V24H15.8571V23.1429H14.7986C14.2893 22.3848 14.0356 21.4838 14.0743 20.5714H21C21.5683 20.5714 22.1134 20.3457 22.5152 19.9438C22.9171 19.5419 23.1429 18.9969 23.1429 18.4286V3.85714C23.1429 3.28882 22.9171 2.74378 22.5152 2.34191C22.1134 1.94005 21.5683 1.71429 21 1.71429ZM13.8086 23.1429H9.33429C9.7663 22.357 9.97387 21.4674 9.93429 20.5714H13.2086C13.169 21.4674 13.3766 22.357 13.8086 23.1429ZM3.42857 4.28571V3.42857H2.14286C2.02919 3.42857 1.92018 3.47372 1.83981 3.5541C1.75944 3.63447 1.71429 3.74348 1.71429 3.85714V16.7143C1.71429 16.8279 1.75944 16.937 1.83981 17.0173C1.92018 17.0977 2.02919 17.1429 2.14286 17.1429H21C21.1137 17.1429 21.2227 17.0977 21.303 17.0173C21.3834 16.937 21.4286 16.8279 21.4286 16.7143V3.85714C21.4286 3.74348 21.3834 3.63447 21.303 3.5541C21.2227 3.47372 21.1137 3.42857 21 3.42857H19.7143V4.28571H20.5714V16.2857H18.8571V0.428571C18.8571 0.314907 18.812 0.205898 18.7316 0.125526C18.6512 0.045153 18.5422 0 18.4286 0H4.71429C4.60062 0 4.49161 0.045153 4.41124 0.125526C4.33087 0.205898 4.28571 0.314907 4.28571 0.428571V16.2857H2.57143V4.28571H3.42857ZM5.14286 0.857143H18V16.2857H5.14286V0.857143ZM9.85714 18.8571V18H13.2857V18.8571H9.85714ZM11.5714 6C11.9105 6 12.2419 5.89946 12.5238 5.71109C12.8057 5.52272 13.0255 5.25499 13.1552 4.94174C13.285 4.6285 13.3189 4.28381 13.2528 3.95127C13.1866 3.61873 13.0234 3.31328 12.7836 3.07353C12.5439 2.83378 12.2384 2.67051 11.9059 2.60437C11.5733 2.53822 11.2286 2.57217 10.9154 2.70192C10.6022 2.83167 10.3344 3.0514 10.1461 3.33331C9.95768 3.61522 9.85714 3.94666 9.85714 4.28571C9.85714 4.74037 10.0378 5.17641 10.3592 5.4979C10.6807 5.81939 11.1168 6 11.5714 6ZM11.5714 3.42857C11.741 3.42857 11.9067 3.47884 12.0476 3.57303C12.1886 3.66721 12.2985 3.80108 12.3633 3.9577C12.4282 4.11432 12.4452 4.28666 12.4121 4.45293C12.379 4.6192 12.2974 4.77193 12.1775 4.89181C12.0576 5.01168 11.9049 5.09331 11.7386 5.12639C11.5724 5.15946 11.4 5.14249 11.2434 5.07761C11.0868 5.01274 10.9529 4.90287 10.8587 4.76192C10.7646 4.62096 10.7143 4.45524 10.7143 4.28571C10.7143 4.05839 10.8046 3.84037 10.9653 3.67962C11.1261 3.51888 11.3441 3.42857 11.5714 3.42857ZM9.85714 9.42857H9V9C9 8.31802 9.27092 7.66396 9.75315 7.18173C10.2354 6.69949 10.8894 6.42857 11.5714 6.42857C12.2534 6.42857 12.9075 6.69949 13.3897 7.18173C13.8719 7.66396 14.1429 8.31802 14.1429 9V9.42857H13.2857V9C13.2857 8.54534 13.1051 8.10931 12.7836 7.78782C12.4621 7.46633 12.0261 7.28571 11.5714 7.28571C11.1168 7.28571 10.6807 7.46633 10.3592 7.78782C10.0378 8.10931 9.85714 8.54534 9.85714 9V9.42857ZM6.85714 11.1429H16.2857V12H6.85714V11.1429ZM6.85714 13.7143H16.2857V14.5714H6.85714V13.7143Z" fill="#000086"/>
</svg>
