<svg width="32" height="32" viewBox="0 0 32 32" fill="none" xmlns="http://www.w3.org/2000/svg">
<path d="M16.3333 3C8.96933 3 3 8.96933 3 16.3333C3 23.6973 8.96933 29.6667 16.3333 29.6667C23.6973 29.6667 29.6667 23.6973 29.6667 16.3333C29.6667 8.96933 23.6973 3 16.3333 3Z" stroke="#000086" stroke-width="1.5" stroke-linecap="round" stroke-linejoin="round"/>
<path d="M9.79941 20V12.524C9.79941 12.104 9.73875 11.768 9.61741 11.516C9.50541 11.2547 9.23941 11.124 8.81941 11.124H8.60941V10.76H14.6994C15.0261 10.76 15.2734 10.816 15.4414 10.928C15.6094 11.0307 15.7261 11.1707 15.7914 11.348C15.8567 11.516 15.8894 11.6933 15.8894 11.88V13.014H15.5254C15.5254 12.4353 15.3714 12.0153 15.0634 11.754C14.7647 11.4927 14.3354 11.362 13.7754 11.362H11.3814V14.918H15.0774V15.52H11.3814V19.398H13.8034C14.3634 19.398 14.8254 19.286 15.1894 19.062C15.5534 18.8287 15.8521 18.418 16.0854 17.83L16.4214 17.942L15.9734 19.132C15.8894 19.4027 15.7634 19.6173 15.5954 19.776C15.4274 19.9253 15.1707 20 14.8254 20H9.79941ZM17.9013 20V15.184C17.9013 14.764 17.8406 14.428 17.7193 14.176C17.6073 13.9147 17.3413 13.784 16.9213 13.784H16.7253V13.42H18.0693C18.3959 13.42 18.6479 13.4667 18.8253 13.56C19.0119 13.644 19.1519 13.7747 19.2453 13.952C19.4226 13.7933 19.6699 13.644 19.9873 13.504C20.3046 13.3547 20.7199 13.28 21.2333 13.28C21.7373 13.28 22.1806 13.364 22.5633 13.532C22.9459 13.6907 23.2399 13.9567 23.4453 14.33C23.6599 14.694 23.7673 15.1933 23.7673 15.828V20H22.1853V15.828C22.1853 15.3613 22.1199 14.9927 21.9893 14.722C21.8586 14.4513 21.6859 14.2553 21.4713 14.134C21.2659 14.0127 21.0326 13.952 20.7713 13.952C20.5006 13.952 20.2579 14.0033 20.0433 14.106C19.8286 14.1993 19.6419 14.316 19.4833 14.456V20H17.9013Z" fill="#000086"/>
</svg>
