<svg width="154" height="161" viewBox="0 0 154 161" fill="none" xmlns="http://www.w3.org/2000/svg">
<path d="M112.415 57.096C111.951 57.096 111.439 57.032 110.879 56.904C110.335 56.76 109.799 56.472 109.271 56.04C108.759 55.592 108.319 54.904 107.951 53.976L107.375 52.56H100.847L98.9026 57H97.7266L104.663 41.16H105.575L110.927 53.976C111.247 54.76 111.599 55.352 111.983 55.752C112.383 56.136 112.879 56.36 113.471 56.424V56.976C113.343 57.008 113.175 57.032 112.967 57.048C112.775 57.08 112.591 57.096 112.415 57.096ZM101.303 51.528H106.895L104.159 44.976L101.303 51.528ZM114.709 57V48.744C114.709 48.024 114.613 47.448 114.421 47.016C114.229 46.568 113.773 46.344 113.053 46.344H112.813V45.72H114.997C115.557 45.72 115.989 45.8 116.293 45.96C116.613 46.104 116.853 46.344 117.013 46.68C117.301 46.424 117.701 46.16 118.213 45.888C118.725 45.616 119.333 45.48 120.037 45.48C120.341 45.48 120.629 45.52 120.901 45.6C121.189 45.664 121.429 45.768 121.621 45.912C121.861 46.072 122.045 46.272 122.173 46.512C122.301 46.736 122.397 46.896 122.461 46.992L121.333 47.832C121.173 47.608 120.941 47.416 120.637 47.256C120.333 47.08 119.981 46.992 119.581 46.992C119.085 46.992 118.645 47.08 118.261 47.256C117.893 47.432 117.597 47.656 117.373 47.928C117.389 48.12 117.405 48.304 117.421 48.48C117.437 48.64 117.445 48.776 117.445 48.888V57H114.709Z" fill="#041851"/>
<path d="M164.619 105.618C194.924 75.313 194.924 26.1782 164.619 -4.12725C134.313 -34.4327 85.1783 -34.4327 54.8729 -4.12727C24.5674 26.1782 24.5674 75.313 54.8729 105.618C85.1783 135.924 134.313 135.924 164.619 105.618Z" stroke="#114BF4" stroke-opacity="0.17" stroke-width="2.3075" stroke-miterlimit="10"/>
<path d="M171.326 65.1007C179.252 31.0986 158.112 -2.8902 124.11 -10.8155C90.108 -18.7408 56.1191 2.39851 48.1938 36.4006C40.2685 70.4027 61.4079 104.392 95.41 112.317C129.412 120.242 163.401 99.1028 171.326 65.1007Z" stroke="#114BF4" stroke-opacity="0.17" stroke-width="2.3075" stroke-miterlimit="10"/>
<path d="M109.751 99.5812C136.725 99.5812 158.591 77.7148 158.591 50.7411C158.591 23.7674 136.725 1.90088 109.751 1.90088C82.7776 1.90088 60.9111 23.7674 60.9111 50.7411C60.9111 77.7148 82.7776 99.5812 109.751 99.5812Z" stroke="#114BF4" stroke-opacity="0.17" stroke-width="2.3075" stroke-miterlimit="10"/>
<path d="M109.751 85.2048C128.785 85.2048 144.216 69.7747 144.216 50.7406C144.216 31.7065 128.785 16.2764 109.751 16.2764C90.7173 16.2764 75.2871 31.7065 75.2871 50.7406C75.2871 69.7747 90.7173 85.2048 109.751 85.2048Z" stroke="#114BF4" stroke-opacity="0.17" stroke-width="2.3075" stroke-miterlimit="10"/>
</svg>
