<svg width="157" height="161" viewBox="0 0 157 161" fill="none" xmlns="http://www.w3.org/2000/svg">
<path d="M34.6031 57V44.184C34.6031 43.464 34.4991 42.888 34.2911 42.456C34.0991 42.008 33.6431 41.784 32.9231 41.784H32.5631V41.16H43.0031C43.5631 41.16 43.9871 41.256 44.2751 41.448C44.5631 41.624 44.7631 41.864 44.8751 42.168C44.9871 42.456 45.0431 42.76 45.0431 43.08V45.024H44.4191C44.4191 44.032 44.1551 43.312 43.6271 42.864C43.1151 42.416 42.3791 42.192 41.4191 42.192H37.3151V48.288H43.6511V49.32H37.3151V55.968H41.4671C42.4271 55.968 43.2191 55.776 43.8431 55.392C44.4671 54.992 44.9791 54.288 45.3791 53.28L45.9551 53.472L45.1871 55.512C45.0431 55.976 44.8271 56.344 44.5391 56.616C44.2511 56.872 43.8111 57 43.2191 57H34.6031ZM48.492 57V48.744C48.492 48.024 48.388 47.448 48.18 47.016C47.988 46.568 47.532 46.344 46.812 46.344H46.476V45.72H48.78C49.34 45.72 49.772 45.8 50.076 45.96C50.396 46.104 50.636 46.328 50.796 46.632C51.1 46.36 51.524 46.104 52.068 45.864C52.612 45.608 53.324 45.48 54.204 45.48C55.068 45.48 55.828 45.624 56.484 45.912C57.14 46.184 57.644 46.64 57.996 47.28C58.364 47.904 58.548 48.76 58.548 49.848V57H55.836V49.848C55.836 49.048 55.724 48.416 55.5 47.952C55.276 47.488 54.98 47.152 54.612 46.944C54.26 46.736 53.86 46.632 53.412 46.632C52.948 46.632 52.532 46.72 52.164 46.896C51.796 47.056 51.476 47.256 51.204 47.496V57H48.492Z" fill="#041851"/>
<path d="M101.847 105.618C132.194 75.313 132.194 26.1782 101.847 -4.12725C71.4993 -34.4327 22.2964 -34.4327 -8.05108 -4.12726C-38.3985 26.1782 -38.3985 75.313 -8.0511 105.618C22.2963 135.924 71.4993 135.924 101.847 105.618Z" stroke="#114BF4" stroke-opacity="0.17" stroke-width="2.3075" stroke-miterlimit="10"/>
<path d="M108.564 65.1007C116.5 31.0986 95.3313 -2.8902 61.2821 -10.8155C27.2329 -18.7408 -6.80312 2.39852 -14.7394 36.4006C-22.6757 70.4027 -1.50704 104.392 32.5422 112.317C66.5914 120.242 100.627 99.1028 108.564 65.1007Z" stroke="#114BF4" stroke-opacity="0.17" stroke-width="2.3075" stroke-miterlimit="10"/>
<path d="M46.903 99.5812C73.9141 99.5812 95.8109 77.7148 95.8109 50.7411C95.8109 23.7674 73.9141 1.90088 46.903 1.90088C19.8919 1.90088 -2.00488 23.7674 -2.00488 50.7411C-2.00488 77.7148 19.8919 99.5812 46.903 99.5812Z" stroke="#114BF4" stroke-opacity="0.17" stroke-width="2.3075" stroke-miterlimit="10"/>
<path d="M46.9036 85.2048C65.9641 85.2048 81.4156 69.7747 81.4156 50.7406C81.4156 31.7065 65.9641 16.2764 46.9036 16.2764C27.8432 16.2764 12.3916 31.7065 12.3916 50.7406C12.3916 69.7747 27.8432 85.2048 46.9036 85.2048Z" stroke="#114BF4" stroke-opacity="0.17" stroke-width="2.3075" stroke-miterlimit="10"/>
</svg>
